<?xml version="1.0" encoding="UTF-8" standalone="no"?>
<svg xmlns="http://www.w3.org/2000/svg"
     viewBox="0 0 89.015999 52"
     width="89"
     height="52"
     role="img"
     aria-label="Amazon Music">
  <g transform="translate(-0.53422889,-18)">
    <path fill="#FFFFFF" d="m 59.7,40.5 c -0.6,0.4 -1.5,0.7 -2.6,0.7 -1.7,0 -3.3,-0.2 -4.9,-0.7 -0.4,-0.1 -0.7,-0.2 -0.9,-0.2 -0.3,0 -0.4,0.2 -0.4,0.6 v 1 c 0,0.3 0.1,0.5 0.2,0.7 0.1,0.1 0.3,0.3 0.6,0.4 1.6,0.7 3.4,1 5.4,1 2.1,0 3.7,-0.5 5,-1.5 1.3,-1 1.9,-2.3 1.9,-4 0,-1.2 -0.3,-2.1 -0.9,-2.9 -0.6,-0.7 -1.6,-1.4 -3,-1.9 l -2.8,-1.1 c -1.1,-0.4 -1.9,-0.8 -2.2,-1.2 -0.4,-0.4 -0.6,-0.8 -0.6,-1.5 0,-1.5 1.1,-2.3 3.4,-2.3 1.3,0 2.6,0.2 3.8,0.6 0.4,0.1 0.7,0.2 0.8,0.2 0.3,0 0.5,-0.2 0.5,-0.6 v -1 c 0,-0.3 -0.1,-0.5 -0.2,-0.7 -0.1,-0.2 -0.3,-0.3 -0.6,-0.4 -1.5,-0.5 -3,-0.8 -4.5,-0.8 -1.9,0 -3.5,0.5 -4.7,1.4 -1.2,0.9 -1.8,2.2 -1.8,3.7 0,2.3 1.3,4 3.9,5 l 3,1.1 c 1,0.4 1.6,0.7 2,1.1 0.4,0.4 0.5,0.8 0.5,1.4 0,0.8 -0.3,1.5 -0.9,1.9 z"/>
    <path fill="#FFFFFF" d="m 44,26.1 v 13.3 c -1.7,1.1 -3.4,1.7 -5.1,1.7 -1.1,0 -1.9,-0.3 -2.4,-0.9 C 36,39.6 35.8,38.7 35.8,37.4 V 26.1 c 0,-0.5 -0.2,-0.7 -0.7,-0.7 H 33 c -0.5,0 -0.7,0.2 -0.7,0.7 v 12.4 c 0,1.7 0.4,3.1 1.3,4 0.9,0.9 2.2,1.4 3.9,1.4 2.3,0 4.6,-0.8 6.8,-2.4 l 0.2,1.2 c 0,0.3 0.1,0.4 0.3,0.5 0.1,0.1 0.3,0.1 0.6,0.1 h 1.5 c 0.5,0 0.7,-0.2 0.7,-0.7 V 26.1 c 0,-0.5 -0.2,-0.7 -0.7,-0.7 h -2.1 c -0.6,0 -0.8,0.3 -0.8,0.7 z"/>
    <path fill="#FFFFFF" d="m 25,43.4 h 2.1 c 0.5,0 0.7,-0.2 0.7,-0.7 V 30.2 c 0,-1.7 -0.4,-3 -1.3,-3.9 -0.9,-0.9 -2.1,-1.4 -3.8,-1.4 -2.3,0 -4.7,0.8 -7,2.5 -0.8,-1.7 -2.3,-2.5 -4.5,-2.5 -2.2,0 -4.4,0.8 -6.6,2.3 L 4.4,26.1 C 4.4,25.8 4.3,25.7 4.1,25.6 4,25.5 3.8,25.5 3.6,25.5 H 2 c -0.5,0 -0.7,0.2 -0.7,0.7 v 16.6 c 0,0.5 0.2,0.7 0.7,0.7 h 2.1 c 0.5,0 0.7,-0.2 0.7,-0.7 V 29.3 c 1.7,-1 3.4,-1.6 5.2,-1.6 1,0 1.7,0.3 2.1,0.9 0.4,0.6 0.7,1.4 0.7,2.6 v 11.5 c 0,0.5 0.2,0.7 0.7,0.7 h 2.1 c 0.5,0 0.7,-0.2 0.7,-0.7 V 30.4 29.8 c 0,-0.2 0,-0.4 0,-0.5 1.8,-1.1 3.5,-1.6 5.2,-1.6 1,0 1.7,0.3 2.1,0.9 0.4,0.6 0.7,1.4 0.7,2.6 v 11.5 c 0,0.5 0.2,0.7 0.7,0.7 z"/>
    <path fill="#FFFFFF" d="m 79.5,56.7 c -10.9,4.6 -22.8,6.9 -33.6,6.9 -16,0 -31.5,-4.4 -44,-11.7 -0.2,-0.1 -0.4,-0.2 -0.6,-0.2 -0.7,0 -1.1,0.8 -0.4,1.5 11.6,10.5 27,16.8 44,16.8 12.2,0 26.3,-3.8 36,-11 1.7,-1.2 0.3,-3 -1.4,-2.3 z"/>
    <path fill="#FFFFFF" d="m 79.2,29.4 c 0.9,-1 2.3,-1.5 4.3,-1.5 1,0 2,0.1 2.9,0.4 0.3,0.1 0.4,0.1 0.6,0.1 0.3,0 0.5,-0.2 0.5,-0.7 v -1 C 87.5,26.4 87.4,26.1 87.3,26 87.2,25.9 87,25.7 86.8,25.6 85.5,25.3 84.2,25 83,25 c -2.8,0 -4.9,0.8 -6.5,2.5 -1.5,1.6 -2.3,4 -2.3,7 0,3 0.7,5.3 2.2,6.9 1.5,1.6 3.6,2.4 6.4,2.4 1.5,0 2.9,-0.2 4,-0.7 0.3,-0.1 0.5,-0.2 0.6,-0.4 0.1,-0.1 0.1,-0.4 0.1,-0.7 v -1 c 0,-0.5 -0.2,-0.7 -0.5,-0.7 -0.1,0 -0.3,0 -0.5,0.1 -1.1,0.3 -2.2,0.5 -3.2,0.5 -1.9,0 -3.3,-0.5 -4.2,-1.5 -0.9,-1 -1.3,-2.6 -1.3,-4.7 v -0.5 c 0.1,-2.2 0.5,-3.8 1.4,-4.8 z"/>
    <path fill="#FFFFFF" d="M 83.7,66.1 C 88.9,61.7 90.3,52.6 89.2,51.2 88.7,50.6 86.3,50 83.3,50 c -3.2,0 -7,0.7 -9.9,2.7 -0.9,0.6 -0.7,1.4 0.2,1.3 3.1,-0.4 10.1,-1.2 11.4,0.4 1.2,1.6 -1.4,8.2 -2.6,11.1 -0.3,0.9 0.4,1.2 1.3,0.6 z"/>
    <path fill="#FFFFFF" d="m 69.8,25.4 h -2.1 c -0.5,0 -0.7,0.2 -0.7,0.7 v 16.6 c 0,0.5 0.2,0.7 0.7,0.7 h 2.1 c 0.5,0 0.7,-0.2 0.7,-0.7 V 26.1 c 0,-0.4 -0.2,-0.7 -0.7,-0.7 z"/>
    <path fill="#FFFFFF" d="m 70.4,18.6 c -0.4,-0.4 -1,-0.6 -1.7,-0.6 -0.7,0 -1.2,0.2 -1.6,0.6 -0.4,0.4 -0.6,0.9 -0.6,1.5 0,0.6 0.2,1.2 0.6,1.5 0.4,0.4 0.9,0.6 1.6,0.6 0.7,0 1.2,-0.2 1.6,-0.6 0.4,-0.4 0.6,-0.9 0.6,-1.5 0,-0.6 -0.1,-1.2 -0.5,-1.5 z"/>
  </g>
</svg>